PathFileType	4	(X/Y/Z)	49_2_rein_41_p1_0-303_filt_butterworth.trc
DataRate	CameraRate	NumFrames	NumMarkers	Units	OrigDataRate	OrigDataStartFrame	OrigNumFrames
60.0	60.0	5	27	m	60.0	75	303
Frame#	Time	RHip			RKnee			RAnkle			RBigToe			RSmallToe			RHeel			LHip			LKnee			LAnkle			LBigToe			LSmallToe			LHeel			Neck			Head			Nose			RShoulder			RElbow			RWrist			RThumb			RIndex			RPinky			LShoulder			LElbow			LWrist			LThumb			LIndex			LPinky			
		X1	Y1	Z1	X2	Y2	Z2	X3	Y3	Z3	X4	Y4	Z4	X5	Y5	Z5	X6	Y6	Z6	X7	Y7	Z7	X8	Y8	Z8	X9	Y9	Z9	X10	Y10	Z10	X11	Y11	Z11	X12	Y12	Z12	X13	Y13	Z13	X14	Y14	Z14	X15	Y15	Z15	X16	Y16	Z16	X17	Y17	Z17	X18	Y18	Z18	X19	Y19	Z19	X20	Y20	Z20	X21	Y21	Z21	X22	Y22	Z22	X23	Y23	Z23	X24	Y24	Z24	X25	Y25	Z25	X26	Y26	Z26	X27	Y27	Z27	
75	1.25	0.39065749561478824	0.6020228779307495	0.7260150160718772	0.3604044194406586	0.8591383309517764	1.1825559184727286	0.32967510794542226	1.0612525701930353	1.596233138769413	0.30377068656200035	0.8690387752024488	1.6790305006065065	0.37280220721989105	0.8639280784823958	1.6687526796970813	0.3237868204384358	1.1517350506257693	1.6323840314184137	0.1812008475671819	0.6069569435918023	0.7246819591829148	0.18324612457496317	0.8266814388709143	1.1717967855499367	0.1861741812418423	1.0450288930358038	1.5787864307989845	0.1593926851687306	0.8409082585246064	1.66409757248726	0.11257898115431234	0.9019345498077309	1.6577883622986342	0.20745554048457027	1.1429273219012164	1.637993754672985	0.2846871756897175	0.4423263425836897	0.2605477683158996	0.30388923468957063	0.2692974658284173	0.05854200672696761	0.2904346806137446	0.2779193760783652	0.20612002472668312	0.45181155072664536	0.480115626634969	0.32651514433429496	0.5143468164272691	0.5523277531327386	0.5680005460827785	0.47253133604319814	0.543072321987931	0.8196137931766398	0.37325594891977004	0.562599171146297	0.9259735697005331	0.38216829551381526	0.5639767248661272	0.9502830115215173	0.44426349199320414	0.6131035472795179	0.9481168785992458	0.12453584854645065	0.5109291104831934	0.28383296719351814	0.07074070979149487	0.5650396007845516	0.5356112773673177	0.05314825696564426	0.5405216448297135	0.7874393043289296	0.1109027236138138	0.5074907446938836	0.8906612804182248	0.06955477353262644	0.4675013730303347	0.9042492330591461	0.04128507252899984	0.5492813634972438	0.9077776231523598
76	1.2666666666666666	0.3913630807393247	0.597808017841509	0.7258290376130344	0.36041141492322704	0.8592487106767505	1.1826614224406002	0.32813157630116213	1.0556916576865027	1.595257989753194	0.3026042721556975	0.8679234862497429	1.6773250832470012	0.3729060089402052	0.8630573326538038	1.669939459013066	0.32266501673045583	1.1516598477754556	1.63237593057914	0.1814139024317764	0.6068393076510588	0.7245474910629478	0.18328515408545437	0.8267710893114861	1.1721084840628087	0.1860666181945469	1.0445817131187212	1.580458113352527	0.1592956025417423	0.8404188463928582	1.6625731833297517	0.11259779776529805	0.9015742633512791	1.6577129633946228	0.20746073677768084	1.1430267205199593	1.6380560520649108	0.2846900224935483	0.44227234763027445	0.26047830559380447	0.30301428381880086	0.2730061482828961	0.05735342758994251	0.29043137060376195	0.27794987167676466	0.20605225916653164	0.45023728436528443	0.475925556244602	0.326517997118512	0.5155033481530116	0.5513388898919753	0.5657257970066465	0.47291535178835364	0.5441083426533012	0.8195514600269337	0.37317409445873817	0.562483958908133	0.9259006530102215	0.381590355279471	0.5608827342793121	0.9503503322669629	0.446879084921335	0.6136358130627306	0.9482303601662885	0.12409395185717981	0.510804104911155	0.2838174061894964	0.07289629189695605	0.5589012126350176	0.5367046759765484	0.057964242181216034	0.5524907156103148	0.7868321478422269	0.11783281912330816	0.5141989768833738	0.8902816599654612	0.07740679378814284	0.4655963032089709	0.905662044599687	0.045841958551152605	0.5537425513755783	0.907785576530223
77	1.2833333333333334	0.39233478436173297	0.5926002661312365	0.7260460180188555	0.36040827233804995	0.8593845729087418	1.1826913237788723	0.32695842290448707	1.0515403306185698	1.5945171020482896	0.3012087148529419	0.8657454739129042	1.6760336567220002	0.37300164080746373	0.8628171206935676	1.6708672950842418	0.3211946294848765	1.1515839589950825	1.6323725407677236	0.18127513324677808	0.6061386769231386	0.7244565961831075	0.18324292652476853	0.8268540929341965	1.1729925562959462	0.18606561714608583	1.0445071785602484	1.581431542446476	0.1590702545471338	0.8393873130068393	1.6603416441469216	0.11262476332932325	0.9010788035102135	1.6576219510754533	0.20742460685664382	1.143163833060776	1.6381473414200947	0.28470205243734514	0.44224994591036104	0.2604889072930503	0.30279031638405585	0.27581083892959474	0.05643987999275005	0.29046916879357854	0.27807398425594143	0.205956705889723	0.44904603204620774	0.47287682732586384	0.3265650936609497	0.5176072492596541	0.5522014291939648	0.5648852648321502	0.47295951625935295	0.5441016336931579	0.8195542844467596	0.37311569718787524	0.5621074067780213	0.9260485884429531	0.38119794357857967	0.5537165953602963	0.9505297136973497	0.44775840386584087	0.6105688473869357	0.9482344549740056	0.12298486755697789	0.5105502005426761	0.2838164933635827	0.07411443249107547	0.5551092627011669	0.5370240974608228	0.06179041612535458	0.5626840216362825	0.7867571920848206	0.12127783111579271	0.5212366286054311	0.8899808935626923	0.08379215960782871	0.4741932827881213	0.9082744869889956	0.05066272770560706	0.5628321581162735	0.9076849806979328
78	1.3	0.39314911807810926	0.5890139084143264	0.7266249830932345	0.360387566681561	0.8594770676664646	1.1826882057374446	0.32647379571688917	1.0500094259800816	1.5942370096965737	0.3003755319918328	0.8624349944940446	1.6760894082196114	0.3730507211446026	0.8628710692718741	1.6712199211793937	0.32006764410096744	1.1515225211723386	1.6323928382491288	0.1811161556392226	0.6053928208895182	0.7243967189483103	0.1830389639896876	0.8270844028062976	1.174197713107443	0.18646455441163784	1.0462976243978581	1.5819853412827158	0.15878481909573527	0.8381103681840505	1.658221640197303	0.112689265939101	0.9005848783702494	1.657512752094191	0.2074243850591288	1.1432562440685885	1.6382176593809676	0.28471062150017246	0.44224488024890196	0.2604985255964631	0.30281371419599395	0.2768625360836659	0.056095227447681056	0.2905336918464548	0.27829152778731053	0.2058515954130354	0.44856979087607524	0.4716643950382942	0.32661352743125105	0.520145895652411	0.5556175549825686	0.5645340083900503	0.4730036287126976	0.5439186002677765	0.819502520750748	0.3731085197555813	0.5611874451220057	0.9262013604389373	0.3826951560846203	0.5425174716937109	0.9509126119302187	0.4488020140910924	0.6011695073153516	0.9482321104513952	0.1215140961233683	0.5102361194122402	0.28383348171307876	0.07452893222976702	0.5539344918028968	0.5369628654983944	0.06396195502650542	0.5685651498434161	0.7871543262465628	0.12299955123365502	0.5260270436673353	0.8898395318640784	0.08961650441775794	0.48729042551011525	0.91100183545143	0.05497533052404258	0.5758638916462213	0.9076452423806389
79	1.3166666666666669	0.3935456466750209	0.587903721309746	0.7272059315607782	0.3603590876962404	0.859590900790985	1.1828750477996117	0.32638662448802463	1.050147549018951	1.5942545833739656	0.30061915692992386	0.8593312723106714	1.6771336576262694	0.3730794284606245	0.8630021013869354	1.671204795057993	0.31960251034993736	1.1514657479834132	1.6324318779527067	0.18104709236668134	0.6049536929728957	0.7243236375579463	0.18270799471064197	0.827511975057141	1.175142454030387	0.18747573589879826	1.0509469548097612	1.5827747511181922	0.15858733760656105	0.8372487291878166	1.6570071641682511	0.11278881213065825	0.900582702404199	1.6574915911475983	0.20750013814692378	1.1431463111074924	1.6382253286138972	0.28470768939627245	0.4422402011113754	0.26049480655742624	0.30256635102496693	0.2766982182690124	0.05615442722007583	0.29050270451261434	0.27828237627422253	0.20581705077077764	0.4486182714678534	0.4713430065562115	0.3265318509407117	0.5223789101252582	0.560239861873945	0.5638088602105941	0.4731715689109107	0.5437865290062933	0.8193990156582438	0.3729765811528901	0.5581902997102329	0.9266647257578998	0.3859338986722267	0.5297998796579438	0.9517123794254809	0.4511963416904847	0.5871509661977	0.9485492403726267	0.12036360610208292	0.5099938174903038	0.28392158460743755	0.07453312035270113	0.5541472718625824	0.5368912177165639	0.06463232228455568	0.5704583830182623	0.788098725867903	0.12412901394938064	0.5280703798689086	0.8897770287977278	0.09539839754569761	0.5000177471244551	0.912733780051073	0.05877620390574061	0.5888873114864712	0.9076216532779522
